<svg xmlns="http://www.w3.org/2000/svg" viewBox="7.5 81.5 41 30" width="100%" height="100%" fill="#9ca3af">
  <path fill-rule="evenodd" clip-rule="evenodd" d="M22.959 109.773c-8.242-1.609-14.456-6.998-14.456-13.396 0-1.543.353-3.027 1.003-4.415 9.808 1.625 13.684 10.954 13.453 17.811zm4.986.491c.172 0 .344-.002.515-.004-.415-10.512 1.035-23.081 1.865-27.665a27.4 27.4 0 0 0-4.761 0c.83 4.584 2.28 17.153 1.865 27.665.171.002.343.004.516.004zm1.447-.028c.38-.018.473-.043.847-.074-.419-13.193 4.734-21.536 7.649-25.719a23.69 23.69 0 0 0-3.854-1.256c-2.576 4.509-4.539 15.465-4.642 27.049zm1.736-.174c.149.01.537-.016.838-.096-.009-14.215 8.691-18.963 12.355-21.073a16.205 16.205 0 0 0-2.937-2.548c-9.512 8.07-10.457 15.905-10.256 23.717zm1.802-.289c8.242-1.609 14.455-6.998 14.455-13.396 0-1.543-.352-3.027-1.003-4.415-9.807 1.625-13.683 10.954-13.452 17.811zm-6.433.463c-.38-.018-.473-.043-.847-.074.419-13.193-4.734-21.536-7.649-25.719a23.626 23.626 0 0 1 3.854-1.256c2.575 4.509 4.539 15.465 4.642 27.049zm-1.736-.174c-.15.01-.537-.016-.839-.096.009-14.215-8.69-18.963-12.355-21.073a16.239 16.239 0 0 1 2.937-2.548c9.513 8.07 10.458 15.905 10.257 23.717z"/>
</svg>
